<svg viewBox="0 0 1400 920" width="100%" height="100vh" preserveAspectRatio="xMidYMax slice" style="position:absolute;inset:0;pointer-events:none" xmlns="http://www.w3.org/2000/svg">
    <defs>
        <linearGradient id="myGradient" gradientTransform="rotate(90)">
            <stop offset="0%" stop-color="#0d4a6f" />
            <stop offset="70%" stop-color="#001528" />
            <stop offset="100%" stop-color="#001528" />
        </linearGradient>
    </defs>
    <rect x="0" y="0" width="1400" height="920" fill="url('#myGradient')"/>
<!--    <path d="M 0 0 L 1400 0 L 1400 60 Q 1050 80 700 60 Q 350 40 0 60 Z " fill="rgba(255,255,255,0.06)"></path>-->
<!--    <path d="M 0 50 Q 35 44 70 50 Q 105 56 140 50 Q 175 44 210 50 Q 245 56 280 50 Q 315 44 350 50 Q 385 56 420 50 Q 455 44 490 50 Q 525 56 560 50 Q 595 44 630 50 Q 665 56 700 50 Q 735 44 770 50 Q 805 56 840 50 Q 875 44 910 50 Q 945 56 980 50 Q 1015 44 1050 50 Q 1085 56 1120 50 Q 1155 44 1190 50 Q 1225 56 1260 50 Q 1295 44 1330 50 Q 1365 56 1400 50" stroke="#cfeaff" stroke-width="2" fill="none" opacity="0.3"></path>-->
<!--    <path d="M 0 75 Q 35 67 70 75 Q 105 83 140 75 Q 175 67 210 75 Q 245 83 280 75 Q 315 67 350 75 Q 385 83 420 75 Q 455 67 490 75 Q 525 83 560 75 Q 595 67 630 75 Q 665 83 700 75 Q 735 67 770 75 Q 805 83 840 75 Q 875 67 910 75 Q 945 83 980 75 Q 1015 67 1050 75 Q 1085 83 1120 75 Q 1155 67 1190 75 Q 1225 83 1260 75 Q 1295 67 1330 75 Q 1365 83 1400 75" stroke="#cfeaff" stroke-width="2" fill="none" opacity="0.18"></path>-->
    <g opacity="0.4"><g transform="translate(1080 920) scale(-0.9 0.9)">
        <path d="M 0 0 Q -8 -40 5 -80 Q 18 -110 -2 -140 Q -20 -170 8 -200 Q 28 -225 0 -260" stroke="#012a40" stroke-width="6" fill="none" stroke-linecap="round" opacity="0.85"></path>
        <path d="M 5 -30 Q 15 -32 18 -25" stroke="#012a40" stroke-width="3" fill="none" stroke-linecap="round" opacity="0.7"></path>
        <path d="M -2 -90 Q -14 -92 -16 -85" stroke="#012a40" stroke-width="3" fill="none" stroke-linecap="round" opacity="0.7"></path>
        <path d="M 7 -150 Q 18 -155 20 -148" stroke="#012a40" stroke-width="3" fill="none" stroke-linecap="round" opacity="0.7"></path>
        <path d="M 0 -210 Q -12 -215 -14 -208" stroke="#012a40" stroke-width="3" fill="none" stroke-linecap="round" opacity="0.7"></path>
    </g><g transform="translate(1180 920) scale(-0.7 0.7)">
        <path d="M 0 0 Q -8 -40 5 -80 Q 18 -110 -2 -140 Q -20 -170 8 -200 Q 28 -225 0 -260" stroke="#012a40" stroke-width="6" fill="none" stroke-linecap="round" opacity="0.85"></path>
        <path d="M 5 -30 Q 15 -32 18 -25" stroke="#012a40" stroke-width="3" fill="none" stroke-linecap="round" opacity="0.7"></path>
        <path d="M -2 -90 Q -14 -92 -16 -85" stroke="#012a40" stroke-width="3" fill="none" stroke-linecap="round" opacity="0.7"></path>
        <path d="M 7 -150 Q 18 -155 20 -148" stroke="#012a40" stroke-width="3" fill="none" stroke-linecap="round" opacity="0.7"></path>
        <path d="M 0 -210 Q -12 -215 -14 -208" stroke="#012a40" stroke-width="3" fill="none" stroke-linecap="round" opacity="0.7"></path>
    </g></g>
    <g transform="translate(1340 920) scale(-1.4 1.4)">
        <path d="M 0 0 Q -8 -40 5 -80 Q 18 -110 -2 -140 Q -20 -170 8 -200 Q 28 -225 0 -260" stroke="#0a3a4a" stroke-width="6" fill="none" stroke-linecap="round" opacity="0.85"></path>
        <path d="M 5 -30 Q 15 -32 18 -25" stroke="#0a3a4a" stroke-width="3" fill="none" stroke-linecap="round" opacity="0.7"></path>
        <path d="M -2 -90 Q -14 -92 -16 -85" stroke="#0a3a4a" stroke-width="3" fill="none" stroke-linecap="round" opacity="0.7"></path>
        <path d="M 7 -150 Q 18 -155 20 -148" stroke="#0a3a4a" stroke-width="3" fill="none" stroke-linecap="round" opacity="0.7"></path>
        <path d="M 0 -210 Q -12 -215 -14 -208" stroke="#0a3a4a" stroke-width="3" fill="none" stroke-linecap="round" opacity="0.7"></path>
    </g><g transform="translate(1240 920) scale(1.3)">
    <path d="M 0 0 Q -8 -10 -6 -22 Q -14 -28 -10 -40 Q -2 -45 2 -38 Q 8 -42 12 -32 Q 18 -28 14 -20 Q 22 -14 18 -4 L 0 0 Z " fill="#d97757" stroke="rgba(0,0,0,0.2)" stroke-width="1.5"></path>
    <circle cx="-4" cy="-25" r="1.5" fill="rgba(255,255,255,0.5)"></circle>
    <circle cx="6" cy="-30" r="1.5" fill="rgba(255,255,255,0.5)"></circle>
    <circle cx="10" cy="-15" r="1.5" fill="rgba(255,255,255,0.5)"></circle>
</g>
    <path d="M 0 820 Q 300 790 700 800 Q 1000 810 1400 780 L 1400 920 L 0 920 Z " fill="#1d3346" opacity="0.85"></path>
    <path d="M 0 855 Q 350 835 800 840 Q 1100 845 1400 830 L 1400 920 L 0 920 Z " fill="#142a3a"></path>
    <path d="M 0 885 Q 400 870 800 885 Q 1100 895 1400 875 L 1400 920 L 0 920 Z " fill="#0d1f2a"></path>
<!--    <g transform="translate(1100 220) scale(0.9 0.9)">-->
<!--        <ellipse cx="0" cy="0" rx="14" ry="8" fill="#ffd166" stroke="#000" stroke-opacity="0.15" stroke-width="1"></ellipse>-->
<!--        <path d="M 12 0 L 22 -7 L 22 7 Z " fill="#ffd166" stroke="#000" stroke-opacity="0.15" stroke-width="1"></path>-->
<!--        <circle cx="-6" cy="-1" r="1.5" fill="#1a1a2e"></circle>-->
<!--        <path d="M -10 2 Q -7 4 -4 2" stroke="#1a1a2e" stroke-opacity="0.3" stroke-width="0.8" fill="none"></path>-->
<!--    </g><g transform="translate(1070 235) scale(0.7 0.7)">-->
<!--    <ellipse cx="0" cy="0" rx="14" ry="8" fill="#ffd166" stroke="#000" stroke-opacity="0.15" stroke-width="1"></ellipse>-->
<!--    <path d="M 12 0 L 22 -7 L 22 7 Z " fill="#ffd166" stroke="#000" stroke-opacity="0.15" stroke-width="1"></path>-->
<!--    <circle cx="-6" cy="-1" r="1.5" fill="#1a1a2e"></circle>-->
<!--    <path d="M -10 2 Q -7 4 -4 2" stroke="#1a1a2e" stroke-opacity="0.3" stroke-width="0.8" fill="none"></path>-->
<!--</g>-->
<!--    <g transform="translate(1130 205) scale(0.8 0.8)">-->
<!--    <ellipse cx="0" cy="0" rx="14" ry="8" fill="#ffd166" stroke="#000" stroke-opacity="0.15" stroke-width="1"></ellipse>-->
<!--    <path d="M 12 0 L 22 -7 L 22 7 Z " fill="#ffd166" stroke="#000" stroke-opacity="0.15" stroke-width="1"></path>-->
<!--    <circle cx="-6" cy="-1" r="1.5" fill="#1a1a2e"></circle>-->
<!--    <path d="M -10 2 Q -7 4 -4 2" stroke="#1a1a2e" stroke-opacity="0.3" stroke-width="0.8" fill="none"></path>-->
<!--</g>-->

    <g transform="translate(1220 800) scale(0.03)" style="filter:brightness(0.75);">
        <g id="g32" transform="matrix(4.16667,0,0,4.16667,0,0)">
            <path id="path8" style="fill:rgb(227,58,37);fill-rule:nonzero;" d="M97.467,488.066L97.474,488.081C97.659,488.226 97.831,488.357 97.467,488.066Z"/>
        </g>
        <g style="display:inline"><path id="path2" style="clip-rule:evenodd;fill:#8f1e1c;fill-rule:nonzero;stroke-linejoin:round;stroke-miterlimit:1.41421" d="m 525.403,293.05 c -131.633,0 -251.228,15.825 -339.77,41.615 v 220.298 c 88.542,25.79 208.137,41.614 339.77,41.614 150.657,0 285.535,-20.729 376.134,-53.402 V 346.457 C 810.938,313.781 676.06,293.05 525.403,293.05 Z" transform="scale(4.16667)"/><path id="path4" style="clip-rule:evenodd;fill:#8f1e1c;fill-rule:nonzero;stroke-width:4.16667;stroke-linejoin:round;stroke-miterlimit:1.41421" d="m 3670.9322,2051.8433 c -16.0709,-44.4292 -19.2875,-100.6417 -5.6708,-154.8418 24.375,-97.0376 93.4209,-150.8251 154.2209,-120.1376 15.075,7.6125 28.225,19.7125 39.1125,35.075 0.9959,0 1.9917,0 2.9792,0.067 0,0 185.6335,221.2752 13.8042,483.3462 -3.7292,14.8709 -318.8919,382.1587 -391.8462,393.8504 -47.75,7.65 62.0459,-374.992 187.4002,-637.3589 z"/><path id="path6" style="clip-rule:evenodd;fill:#8f1e1c;fill-rule:nonzero;stroke-linejoin:round;stroke-miterlimit:1.41421" d="m 176.479,482.021 c 5.3,-9.63 7.158,-22.788 4.217,-36.425 -5.266,-24.416 -23.91,-41.11 -41.642,-37.285 -4.398,0.948 -8.325,3.072 -11.666,6.098 -0.282,-0.058 -0.564,-0.113 -0.845,-0.153 0,0 -56.292,41.952 -12.057,113.924 0.805,3.741 83.851,108.838 104.311,115.763 13.391,4.532 -11.247,-92.525 -42.318,-161.922 z" transform="scale(4.16667)"/><path id="path10" style="clip-rule:evenodd;fill:#e43a25;fill-rule:nonzero;stroke-linejoin:round;stroke-miterlimit:1.41421" d="m 1006.2563,423.00862 c -0.88,-3.064 -14.8933,-16.23162 -15.7993,-19.26762 l 30.683,-44.451 c 3.13,-4.522 3.77,-10.398 1.73,-15.555 -2.04,-5.13 -6.49,-8.81 -11.76,-9.71 l -51.886,-8.805 c -2.008,-4.102 -4.116,-8.142 -6.23,-12.15 l 21.797,-49.903 c 2.243,-5.087 1.769,-10.995 -1.203,-15.608 -2.961,-4.636 -7.99,-7.344 -13.349,-7.133 l -52.656,1.913 c -2.727,-3.55 -5.496,-7.068 -8.322,-10.521 l 12.101,-53.49 c 1.225,-5.433 -0.322,-11.118 -4.103,-15.064 -3.762,-3.932 -9.229,-5.559 -14.426,-4.283 l -51.289,12.608 c -3.321,-2.935 -6.699,-5.833 -10.114,-8.673 l 1.848,-54.914 c 0.198,-5.559 -2.393,-10.841 -6.844,-13.925 -4.446,-3.104 -10.093,-3.573 -14.956,-1.266 l -47.847,22.747 c -3.854,-2.21 -7.728,-4.4 -11.644,-6.517 l -8.455,-54.115 c -0.857,-5.482 -4.385,-10.138 -9.326,-12.265 -4.923,-2.138 -10.568,-1.448 -14.891,1.808 l -42.659,32.007 c -4.2,-1.396 -8.419,-2.733 -12.692,-4.011 L 645.578,21.148 c -1.87,-5.229 -6.181,-9.071 -11.438,-10.151 -5.239,-1.071 -10.63,0.743 -14.263,4.802 L 583.97,55.971 c -4.342,-0.5 -8.685,-0.956 -13.043,-1.332 L 543.204,7.926 c -2.81,-4.732 -7.77,-7.612 -13.116,-7.612 -5.334,0 -10.304,2.88 -13.09,7.612 l -27.733,46.713 c -4.358,0.376 -8.722,0.832 -13.056,1.332 l -35.91,-40.172 c -3.636,-4.059 -9.047,-5.873 -14.268,-4.802 -5.255,1.092 -9.573,4.922 -11.433,10.151 l -18.402,51.317 c -4.26,1.278 -8.481,2.627 -12.691,4.011 L 340.861,44.469 c -4.336,-3.266 -9.98,-3.955 -14.916,-1.808 -4.919,2.127 -8.461,6.783 -9.313,12.265 l -8.461,54.115 c -3.914,2.117 -7.789,4.294 -11.653,6.517 L 248.676,92.811 c -4.858,-2.315 -10.529,-1.838 -14.954,1.266 -4.445,3.084 -7.042,8.366 -6.84,13.925 l 1.835,54.914 c -3.405,2.84 -6.774,5.738 -10.112,8.673 l -51.279,-12.608 c -5.211,-1.265 -10.67,0.351 -14.441,4.283 -3.795,3.946 -5.332,9.631 -4.113,15.064 l 12.079,53.49 c -2.802,3.467 -5.575,6.971 -8.293,10.521 l -52.655,-1.913 c -5.315,-0.157 -10.387,2.497 -13.356,7.133 -2.975,4.613 -3.425,10.521 -1.211,15.608 l 21.814,49.903 c -2.119,4.008 -4.224,8.048 -6.249,12.15 l -51.883,8.805 c -5.271,0.888 -9.714,4.566 -11.764,9.71 -2.037,5.157 -1.376,11.033 1.735,15.555 l 30.69,44.451 c -0.237,0.784 -0.455,1.576 -0.69,2.364 l -16.863,17.912 45.341,64.049 c 0,0 435.152,200.732 838.797,3.396 31.96014,-16.35749 69.9923,-68.45338 69.9923,-68.45338 z" transform="scale(4.16667)"/><path id="path20" style="clip-rule:evenodd;fill:#e43a25;fill-rule:nonzero;stroke-linejoin:round;stroke-miterlimit:1.41421" d="m 111.602,499.216 c 10.967,-12.463 37.611,-27.557 35.57,-46.282 -3.653,-33.527 -31.456,-57.999 -62.099,-54.659 -7.6,0.828 -14.658,3.292 -20.924,7.036 -0.462,-0.107 -0.925,-0.211 -1.388,-0.294 0,0 -103.631,50.873 -44.564,152.657 0.557,5.137 117.848,155.668 150.788,167.131 21.559,7.502 -19.911,-128.64 -57.383,-225.589 z" transform="scale(4.16667)"/><path id="path22" style="clip-rule:evenodd;fill:#e43a25;fill-rule:nonzero;stroke-width:4.16667;stroke-linejoin:round;stroke-miterlimit:1.41421" d="m 3927.124,2061.1391 c -52.8875,-44.5833 -192.3418,-85.075 -195.5001,-163.4917 -5.65,-140.4085 93.8,-258.4211 222.1335,-263.5836 31.825,-1.2833 62.4333,4.5125 90.5625,16.0709 1.8417,-0.725 3.6834,-1.4417 5.5375,-2.0709 0,0 458.4379,145.6293 277.8961,601.5255 0.875,21.5125 -389.4503,714.2339 -518.1046,781.8131 -84.2042,44.2292 22.9417,-547.6296 117.4751,-970.2633 z"/><g id="g920"><path transform="scale(4.16667)" d="m 191.142,495.558 c 0,0 -1.383,137.296 133.166,167.932 l 28.054,-56.363 c 0,0 -97.495,9.431 -104.995,-111.569 z" style="clip-rule:evenodd;fill:#e43a25;fill-rule:nonzero;stroke-linejoin:round;stroke-miterlimit:1.41421" id="path24"/><path transform="scale(4.16667)" d="m 404.746,695.984 c 0,0 55.203,7.295 130.67,9.156 6.61,-47.511 -29.38,-97.792 -86.801,-117.243 -63.438,-21.488 -128.989,2.792 -146.414,54.232 -17.425,51.44 19.876,110.56 83.314,132.049 28.121,9.526 56.653,10.049 81.229,3.207 -36.911,-36.505 -61.998,-81.401 -61.998,-81.401 z" style="clip-rule:evenodd;fill:#e43a25;fill-rule:nonzero;stroke-linejoin:round;stroke-miterlimit:1.41421" id="path30"/></g><g transform="matrix(-1,0,0,1,4452.5726,0)" id="g926"><path id="path922" style="clip-rule:evenodd;fill:#e43a25;fill-rule:nonzero;stroke-width:4.16667;stroke-linejoin:round;stroke-miterlimit:1.41421" d="m 836.42564,2064.8267 c 0,0 -5.76251,572.0671 554.85876,699.7172 l 116.8918,-234.846 c 0,0 -406.2295,39.2958 -437.4795,-464.8712 z"/><path id="path924" style="clip-rule:evenodd;fill:#e43a25;fill-rule:nonzero;stroke-width:4.16667;stroke-linejoin:round;stroke-miterlimit:1.41421" d="m 1726.443,2899.9357 c 0,0 230.0127,30.3958 544.4588,38.15 27.5417,-197.9627 -122.4168,-407.467 -361.6711,-488.5129 -264.3252,-89.5334 -537.4546,11.6333 -610.0589,225.9668 -72.6042,214.3335 82.8168,460.6671 347.142,550.2046 117.1709,39.6917 236.0543,41.8709 338.4544,13.3626 -153.7959,-152.1043 -258.3252,-339.1711 -258.3252,-339.1711 z"/></g></g><g id="layer3"><g transform="translate(-68)" id="g894"><circle style="fill:#ffffff;fill-opacity:1;stroke:#ffffff;stroke-linecap:round;stroke-linejoin:bevel" id="path882" cx="1766.3804" cy="1762.1697" r="408.43564"/><circle r="366.38034" cy="1740.0629" cx="1754.2736" id="circle884" style="fill:#030404;fill-opacity:1;stroke:#ffffff;stroke-width:0.897033;stroke-linecap:round;stroke-linejoin:bevel"/><ellipse style="fill:#ffffff;fill-opacity:1;stroke:#ffffff;stroke-width:1.08508;stroke-linecap:round;stroke-linejoin:bevel" id="path886" cx="550.45941" cy="2345.7854" rx="265.84702" ry="199.21303" transform="matrix(0.81365178,-0.58135255,0.5261705,0.85037909,0,0)"/><ellipse style="fill:#ffffff;fill-opacity:1;stroke:#ffffff;stroke-width:0.846476;stroke-linecap:round;stroke-linejoin:bevel" id="path888" cx="1770.5897" cy="1993.7556" rx="82.184959" ry="52.71022"/></g><g transform="translate(953.0906)" id="g904"><circle r="408.43564" cy="1762.1697" cx="1766.3804" id="circle896" style="fill:#ffffff;fill-opacity:1;stroke:#ffffff;stroke-linecap:round;stroke-linejoin:bevel"/><circle style="fill:#030404;fill-opacity:1;stroke:#ffffff;stroke-width:0.897033;stroke-linecap:round;stroke-linejoin:bevel" id="circle898" cx="1754.2736" cy="1740.0629" r="366.38034"/><ellipse transform="matrix(0.81365178,-0.58135255,0.5261705,0.85037909,0,0)" ry="199.21303" rx="265.84702" cy="2345.7854" cx="550.45941" id="ellipse900" style="fill:#ffffff;fill-opacity:1;stroke:#ffffff;stroke-width:1.08508;stroke-linecap:round;stroke-linejoin:bevel"/><ellipse ry="52.71022" rx="82.184959" cy="1993.7556" cx="1770.5897" id="ellipse902" style="fill:#ffffff;fill-opacity:1;stroke:#ffffff;stroke-width:0.846476;stroke-linecap:round;stroke-linejoin:bevel"/></g></g>
    </g>
    <g transform="translate(1070 800) scale(0.03)" style="filter:brightness(0.75);">
        <g transform="matrix(4.16667,0,0,4.16667,0,0)">
            <path d="M525.403,293.05C393.77,293.05 274.175,308.875 185.633,334.665L185.633,554.963C274.175,580.753 393.77,596.577 525.403,596.577C676.06,596.577 810.938,575.848 901.537,543.175L901.537,346.457C810.938,313.781 676.06,293.05 525.403,293.05Z" style="fill:rgb(143,30,28);fill-rule:nonzero;"/>
            <path d="M907.423,492.442C903.566,481.779 902.794,468.288 906.062,455.28C911.912,431.991 928.483,419.082 943.075,426.447C946.693,428.274 949.849,431.178 952.462,434.865C952.701,434.864 952.94,434.865 953.177,434.881C953.177,434.881 997.729,487.987 956.49,550.884C955.595,554.453 879.956,642.602 862.447,645.408C850.987,647.244 877.338,555.41 907.423,492.442Z" style="fill:rgb(143,30,28);fill-rule:nonzero;"/>
            <path d="M176.479,482.021C181.779,472.391 183.637,459.233 180.696,445.596C175.43,421.18 156.786,404.486 139.054,408.311C134.656,409.259 130.729,411.383 127.388,414.409C127.106,414.351 126.824,414.296 126.543,414.256C126.543,414.256 70.251,456.208 114.486,528.18C115.291,531.921 198.337,637.018 218.797,643.943C232.188,648.475 207.55,551.418 176.479,482.021Z" style="fill:rgb(143,30,28);fill-rule:nonzero;"/>
            <path d="M97.467,488.066L97.474,488.081C97.659,488.226 97.831,488.357 97.467,488.066Z" style="fill:rgb(227,58,37);fill-rule:nonzero;"/>
            <path d="M993.119,412.903C992.239,409.839 991.363,406.777 990.457,403.741L1021.14,359.29C1024.27,354.768 1024.91,348.892 1022.87,343.735C1020.83,338.605 1016.38,334.925 1011.11,334.025L959.224,325.22C957.216,321.118 955.108,317.078 952.994,313.07L974.791,263.167C977.034,258.08 976.56,252.172 973.588,247.559C970.627,242.923 965.598,240.215 960.239,240.426L907.583,242.339C904.856,238.789 902.087,235.271 899.261,231.818L911.362,178.328C912.587,172.895 911.04,167.21 907.259,163.264C903.497,159.332 898.03,157.705 892.833,158.981L841.544,171.589C838.223,168.654 834.845,165.756 831.43,162.916L833.278,108.002C833.476,102.443 830.885,97.161 826.434,94.077C821.988,90.973 816.341,90.504 811.478,92.811L763.631,115.558C759.777,113.348 755.903,111.158 751.987,109.041L743.532,54.926C742.675,49.444 739.147,44.788 734.206,42.661C729.283,40.523 723.638,41.213 719.315,44.469L676.656,76.476C672.456,75.08 668.237,73.743 663.964,72.465L645.578,21.148C643.708,15.919 639.397,12.077 634.14,10.997C628.901,9.926 623.51,11.74 619.877,15.799L583.97,55.971C579.628,55.471 575.285,55.015 570.927,54.639L543.204,7.926C540.394,3.194 535.434,0.314 530.088,0.314C524.754,0.314 519.784,3.194 516.998,7.926L489.265,54.639C484.907,55.015 480.543,55.471 476.209,55.971L440.299,15.799C436.663,11.74 431.252,9.926 426.031,10.997C420.776,12.089 416.458,15.919 414.598,21.148L396.196,72.465C391.936,73.743 387.715,75.092 383.505,76.476L340.861,44.469C336.525,41.203 330.881,40.514 325.945,42.661C321.026,44.788 317.484,49.444 316.632,54.926L308.171,109.041C304.257,111.158 300.382,113.335 296.518,115.558L248.676,92.811C243.818,90.496 238.147,90.973 233.722,94.077C229.277,97.161 226.68,102.443 226.882,108.002L228.717,162.916C225.312,165.756 221.943,168.654 218.605,171.589L167.326,158.981C162.115,157.716 156.656,159.332 152.885,163.264C149.09,167.21 147.553,172.895 148.772,178.328L160.851,231.818C158.049,235.285 155.276,238.789 152.558,242.339L99.903,240.426C94.588,240.269 89.516,242.923 86.547,247.559C83.572,252.172 83.122,258.08 85.336,263.167L107.15,313.07C105.031,317.078 102.926,321.118 100.901,325.22L49.018,334.025C43.747,334.913 39.304,338.591 37.254,343.735C35.217,348.892 35.878,354.768 38.989,359.29L69.679,403.741C69.442,404.525 69.224,405.317 68.989,406.105L52.126,424.017L97.467,488.066C97.467,488.066 532.619,688.798 936.264,491.462C982.372,483.189 993.119,412.903 993.119,412.903Z" style="fill:rgb(228,58,37);fill-rule:nonzero;"/>
            <path d="M608.303,376.759C608.303,376.759 656.46,324.03 704.618,376.759C704.618,376.759 742.458,447.071 704.618,482.222C704.618,482.222 642.701,531.439 608.303,482.222C608.303,482.222 567.024,443.55 608.303,376.759Z" style="fill:rgb(3,4,4);fill-rule:nonzero;"/>
            <path d="M664.057,396.32C664.057,416.853 651.954,433.499 637.027,433.499C622.103,433.499 610,416.853 610,396.32C610,375.788 622.103,359.14 637.027,359.14C651.954,359.14 664.057,375.788 664.057,396.32Z" style="fill:white;fill-rule:nonzero;"/>
            <path d="M393.365,362.361C393.365,362.361 475.973,325.785 498.519,407.423C498.519,407.423 522.137,502.577 430.682,507.948C430.682,507.948 314.06,485.486 393.365,362.361Z" style="fill:rgb(3,4,4);fill-rule:nonzero;"/>
            <path d="M434.855,397.668C434.855,418.841 422.375,436.014 406.978,436.014C391.587,436.014 379.104,418.841 379.104,397.668C379.104,376.49 391.587,359.322 406.978,359.322C422.375,359.322 434.855,376.49 434.855,397.668Z" style="fill:white;fill-rule:nonzero;"/>
            <path d="M111.602,499.216C122.569,486.753 149.213,471.659 147.172,452.934C143.519,419.407 115.716,394.935 85.073,398.275C77.473,399.103 70.415,401.567 64.149,405.311C63.687,405.204 63.224,405.1 62.761,405.017C62.761,405.017 -40.87,455.89 18.197,557.674C18.754,562.811 136.045,713.342 168.985,724.805C190.544,732.307 149.074,596.165 111.602,499.216Z" style="fill:rgb(228,58,37);fill-rule:nonzero;"/>
            <path d="M953.549,494.673C940.856,483.973 907.387,474.255 906.629,455.435C905.273,421.737 929.141,393.414 959.941,392.175C967.579,391.867 974.925,393.258 981.676,396.032C982.118,395.858 982.56,395.686 983.005,395.535C983.005,395.535 1093.03,430.486 1049.7,539.901C1049.91,545.064 956.232,711.317 925.355,727.536C905.146,738.151 930.861,596.105 953.549,494.673Z" style="fill:rgb(228,58,37);fill-rule:nonzero;"/>
            <path d="M191.142,495.558C191.142,495.558 189.759,632.854 324.308,663.49L352.362,607.127C352.362,607.127 254.867,616.558 247.367,495.558L191.142,495.558Z" style="fill:rgb(228,58,37);fill-rule:nonzero;"/>
            <path d="M876.362,495.558C876.362,495.558 877.744,632.854 743.195,663.49L715.141,607.127C715.141,607.127 812.636,616.558 820.136,495.558L876.362,495.558Z" style="fill:rgb(228,58,37);fill-rule:nonzero;"/>
            <path d="M779.167,635.591C758.917,586.649 693.572,567.218 633.216,592.191C580.09,614.172 548.579,663.223 555.592,708.036C597.538,707.384 642.532,704.665 686.328,698.318C686.328,698.318 660.491,740.081 622.471,776.529C648.037,783.128 677.854,781.297 706.547,769.425C766.904,744.452 799.417,684.532 779.167,635.591Z" style="fill:rgb(228,58,37);fill-rule:nonzero;"/>
            <path d="M404.746,695.984C404.746,695.984 459.949,703.279 535.416,705.14C542.026,657.629 506.036,607.348 448.615,587.897C385.177,566.409 319.626,590.689 302.201,642.129C284.776,693.569 322.077,752.689 385.515,774.178C413.636,783.704 442.168,784.227 466.744,777.385C429.833,740.88 404.746,695.984 404.746,695.984Z" style="fill:rgb(228,58,37);fill-rule:nonzero;"/>
        </g>
    </g>
</svg>